<?xml version="1.0" standalone="no"?>
<!DOCTYPE svg PUBLIC "-//W3C//DTD SVG 20010904//EN"
 "http://www.w3.org/TR/2001/REC-SVG-20010904/DTD/svg10.dtd">
<svg version="1.0" xmlns="http://www.w3.org/2000/svg"
 width="700.000000pt" height="700.000000pt" viewBox="0 0 700.000000 700.000000"
 preserveAspectRatio="xMidYMid meet">
<metadata>
Created by potrace 1.14, written by Peter Selinger 2001-2017
</metadata>
<g transform="translate(0.000000,700.000000) scale(0.100000,-0.100000)"
fill="#000000" stroke="none">
<path d="M1400 6113 c-324 -54 -577 -259 -688 -558 -12 -33 -25 -71 -28 -85
-2 -14 -10 -50 -16 -80 -13 -65 -18 -3634 -5 -3740 49 -403 356 -713 759 -767
66 -9 4094 -9 4163 0 322 42 613 282 712 587 47 145 46 95 47 1990 1 987 -2
1831 -6 1874 -28 291 -196 544 -458 688 -61 33 -180 74 -260 89 -93 18 -4116
19 -4220 2z m4158 -436 c86 -18 151 -54 216 -119 66 -67 102 -130 121 -212 9
-38 11 -516 11 -1861 -1 -1745 -2 -1812 -20 -1865 -53 -155 -189 -276 -338
-300 -29 -4 -957 -8 -2062 -8 -1601 0 -2019 3 -2057 13 -83 22 -142 56 -205
119 -64 65 -100 128 -119 210 -9 38 -11 518 -10 1866 l2 1815 21 58 c51 138
173 249 308 280 49 12 413 14 2072 14 1306 0 2029 -3 2060 -10z"/>
<path d="M1905 5023 c-43 -11 -96 -55 -130 -108 -14 -22 -19 -49 -20 -102 0
-110 8 -118 392 -407 l332 -249 -72 -54 c-40 -29 -79 -59 -87 -66 -8 -6 -49
-37 -90 -67 -41 -30 -77 -57 -80 -60 -3 -3 -75 -58 -160 -122 -85 -63 -164
-124 -176 -134 -45 -41 -73 -130 -60 -197 9 -51 60 -120 105 -145 49 -28 130
-35 181 -17 36 13 936 681 972 721 53 60 62 161 23 240 -21 42 -49 67 -182
167 -87 65 -293 220 -458 344 -165 124 -318 234 -340 244 -38 17 -106 23 -150
12z"/>
<path d="M3200 3701 c-53 -25 -74 -42 -105 -89 -23 -34 -28 -54 -29 -106 -1
-72 12 -103 63 -159 61 -65 75 -66 602 -66 441 1 469 2 510 21 87 39 131 105
131 198 0 86 -39 152 -117 193 -39 22 -49 22 -530 23 -433 1 -494 0 -525 -15z"/>
</g>
</svg>
